<svg xmlns="http://www.w3.org/2000/svg" viewBox="0 0 606.14 210.39"><defs><style>.cls-1{isolation:isolate;}.cls-2,.cls-9{fill:#fff;}.cls-3{fill:#301d5d;}.cls-4{fill:#3d3775;}.cls-5,.cls-8{fill:#6346aa;}.cls-5{opacity:0.44;}.cls-10,.cls-11,.cls-5{mix-blend-mode:multiply;}.cls-6{fill:none;stroke:#301d5d;stroke-miterlimit:10;stroke-width:3.59px;}.cls-7{fill:#fc1;}.cls-9{opacity:0.62;mix-blend-mode:screen;}.cls-10{opacity:0.45;}.cls-11{opacity:0.35;}</style></defs><title>Icon for Ghettifish</title><g class="cls-1"><g id="Layer_1" data-name="Layer 1"><path class="cls-2" d="M65,44.75c-3.2,6.9,2,10.31,6.64,14.38C78.06,64.8,73,74,70,80.11c-3.47,7.22-5.37,13.93-3,21.87s7.61,15.28,9.64,23.45c1.89,7.63-2.82,15-4.58,22.23-1.29,5.32-1.19,11.53-1.31,17,0,2-.12,4.21.82,6,1.28,2.42,2.67,2.25,1.64,5.44-0.72,2.22-1.64,3.93-1.79,6.36-0.26,4.2,1.56,9-.57,12.86s3.7,7.16,5.78,3.38c3.45-6.28-.1-12.93,2.36-19.22a13.16,13.16,0,0,0,1.26-6.36c-0.23-2.89-1.78-3.37-2.74-5.62-0.8-1.89.06-5.33,0.2-7.34,0.21-3.06-.09-6.2.46-9.21,1.27-7,5-13.23,5.53-20.37,0.53-7.41-3.42-14.13-6.3-20.7-2.07-4.73-4.81-9.75-4.94-15-0.11-4.63,2-8.76,4-12.81C79.36,76.28,82,70.26,81.21,63.7a14.6,14.6,0,0,0-2.9-7.25c-1.4-1.8-8.65-5.9-7.53-8.32,1.8-3.88-4-7.29-5.78-3.38h0Z"/><path class="cls-2" d="M58.19,46.54c-0.4,3.54.32,6.66,0.95,10.12a44.57,44.57,0,0,1,.5,11.69C59.11,75,57.59,81.49,57.37,88.14S58.9,101,60.61,107.48a147.24,147.24,0,0,1,4.24,22.72c0.63,6.37-2.94,11.79-3.64,18a187,187,0,0,0-.85,21.9c0,7.32.21,14.65-.1,22-0.24,5.84-.55,11.36,2.39,16.62,2.1,3.76,7.88.39,5.78-3.38-3.08-5.52-1.41-12.93-1.32-19,0.1-7-.11-14-0.06-21,0-6.82-.29-14.48,1.67-21.07,0.89-3,2.39-5.72,2.85-8.84a30.17,30.17,0,0,0-.44-8.6,191.6,191.6,0,0,0-3.82-20.24c-1.66-6.52-3.53-12.55-3.18-19.39,0.34-6.64,1.83-13.16,2.28-19.79,0.48-7.07-2.28-14-1.51-20.91,0.48-4.28-6.22-4.24-6.7,0h0Z"/><path class="cls-2" d="M43.93,43.62c-4,12,2,23.39,4,35.11,2.31,13.54.64,27.64-.17,41.24l-4.92,82.79c-0.26,4.3,6.44,4.29,6.7,0l4.8-80.8c0.76-12.75,2.15-25.73.91-38.49a108.12,108.12,0,0,0-3.7-18.13c-1.82-6.65-3.4-13.19-1.16-19.94,1.36-4.1-5.1-5.86-6.46-1.78h0Z"/><path class="cls-2" d="M96.05,51.34a9,9,0,0,0-11.17,2.53C81.37,58.2,82.65,64,84.34,68.82c1.2,3.4,2.51,6.37,1.91,10.07-0.46,2.88-1.85,5.61-3,8.26-2.3,5.27-4,10.34-3.09,16.17,1,6.15,4.22,11.52,6.18,17.35a38.41,38.41,0,0,1,.5,22.6c-1.73,6.35-4.22,12.49-4.23,19.18a34.2,34.2,0,0,0,5.18,17.77c2.23,3.68,8,.32,5.78-3.38A27.1,27.1,0,0,1,89.5,159.5c0.6-5.26,2.69-10.19,4-15.28,2.69-10.38,1.45-20.53-2.69-30.33-2-4.8-4.66-9.93-4.22-15.29,0.4-4.89,3.13-9.2,4.83-13.72A21.35,21.35,0,0,0,92.74,73a68.76,68.76,0,0,0-2.48-7.44c-0.58-1.79-1.92-10.45,2.41-8.44,3.88,1.8,7.29-4,3.38-5.78h0Z"/><path class="cls-2" d="M32.45,40.32c-1.78,5.83-3.59,12-3.08,18.14s4.47,11.08,4.71,17.2c0.27,6.58,0,12.62,1.47,19.12,1.56,7,3.65,13.69,4,20.86,0.74,14-3,27.73-6.65,41.1-1.64,5.94-3.66,11.91-3.56,18.15,0.11,6.83,2.12,13.41,1.37,20.28-0.46,4.28,6.24,4.25,6.7,0,0.71-6.59-1.08-12.85-1.35-19.4-0.28-6.81,2.27-13.46,4-20,3.41-12.47,6.53-25.32,6.21-38.34s-6-25.11-5.65-38.16a34.61,34.61,0,0,0-.56-9C39.48,67.56,38,65.23,37,62.61c-2.48-6.72-.13-14,1.87-20.51,1.26-4.13-5.2-5.89-6.46-1.78h0Z"/><path class="cls-2" d="M14,40.13c7.78,0,22.35,1.85,38.85,5.14C77,50.1,96.22,56.19,95.68,58.87c-0.17.85-2.32,1.26-6,1.26-7.78,0-22.35-1.85-38.85-5.14C26.66,50.16,7.46,44.08,8,41.39c0.17-.85,2.32-1.26,6-1.26M14,35h0C10.74,35,4,35,3,40.39c-1,4.86,4.16,7.36,5.85,8.18a75.94,75.94,0,0,0,9.78,3.69A308.39,308.39,0,0,0,49.87,60c16.22,3.23,31.49,5.24,39.85,5.24,3.22,0,9.91,0,11-5.38,1-4.86-4.16-7.36-5.85-8.18A75.94,75.94,0,0,0,85.07,48a308.39,308.39,0,0,0-31.27-7.74C37.58,37,22.31,35,14,35h0Z"/><path class="cls-2" d="M25.42,38.94C17.15,47.27,18,59.15,21,69.62c3.94,13.65,6.87,27,7.89,41.19,0.48,6.66.32,13.67-2.68,19.78-2.47,5-7.07,8.39-10.2,13-7.76,11.35,2.67,23.23-1.16,35.28-1.31,4.11,5.15,5.88,6.46,1.78a30,30,0,0,0,.18-17.11c-1.72-6.8-3.33-12.2,1.49-18.07,3.13-3.81,6.78-7,9-11.46a38.51,38.51,0,0,0,3.74-15.51c0.59-12.43-1.61-26.34-4.63-38.39-2.8-11.2-10.87-26.43-1-36.4,3-3.06-1.69-7.8-4.73-4.73h0Z"/><path class="cls-2" d="M49.3,4.73A55.59,55.59,0,0,1,60.84,6C94.47,13.12,101.7,42.82,95,57.52,74.68,47.37,53.12,43.71,53.12,43.71A192.76,192.76,0,0,0,16.8,40.45c-2.52,0-5.13,0-7.8.15C7.07,25.82,22.63,4.73,49.3,4.73M49.3,0C35,0,22.23,5.53,13.43,15.56,6.63,23.3,3.23,32.89,4.32,41.22L4.88,45.5l4.32-.17c2.5-.1,5.06-0.15,7.61-0.15a189.31,189.31,0,0,1,35.33,3.16l0.1,0,0.1,0c0.21,0,21.14,3.68,40.52,13.38l4.38,2.19,2-4.45c4.25-9.27,3.51-21.74-1.92-32.54-6.56-13-19.18-22.13-35.53-25.6A60.53,60.53,0,0,0,49.3,0h0Z"/><path class="cls-2" d="M35.18,36.06c-10.36-5.27-21.45.27-26.68,10-6.14,11.44-3.5,23,1.79,34.11,6.13,12.88,9.66,26.47,7.85,40.87-0.82,6.48-2.79,12.55-8.77,15.81-5.17,2.82-9.69,6-9.35,12.56,0.22,4.29,6.92,4.31,6.7,0-0.3-5.78,7.93-7,11.29-10.54,3.06-3.24,4.81-7.63,5.83-11.9,2.5-10.51,1.7-22.14-.88-32.56C20.31,83.77,12.7,74.27,11.55,63.34,10.46,53,19,35.32,31.8,41.85,35.63,43.79,39,38,35.18,36.06h0Z"/><path class="cls-3" d="M59,46.54c-0.39,3.48.3,6.51,0.92,9.9a45.35,45.35,0,0,1,.53,11.9C59.93,75,58.41,81.49,58.19,88.14s1.51,12.72,3.2,19.12a147.83,147.83,0,0,1,4.27,22.94c0.63,6.41-2.94,11.77-3.64,18a187.09,187.09,0,0,0-.85,21.9c0,7.32.21,14.65-.1,22-0.24,5.69-.58,11.08,2.28,16.21,1.59,2.85,6,.3,4.37-2.56-3.17-5.69-1.52-13.16-1.43-19.39,0.1-7-.11-14-0.06-21s-0.29-14.64,1.7-21.29c0.89-3,2.41-5.72,2.85-8.84a29.77,29.77,0,0,0-.45-8.28,191.28,191.28,0,0,0-3.81-20.13c-1.68-6.59-3.56-12.69-3.21-19.6,0.34-6.64,1.83-13.16,2.28-19.79,0.48-7.07-2.29-14-1.51-20.91,0.36-3.23-4.71-3.21-5.06,0h0Z"/><path class="cls-3" d="M95.64,52a8.13,8.13,0,0,0-10.18,2.4c-3.26,4.14-1.92,9.66-.33,14.15,1.25,3.53,2.6,6.65,1.91,10.5A38.58,38.58,0,0,1,84,87.56c-2.22,5.1-3.87,10-3,15.65,1,6.11,4.22,11.45,6.16,17.25a39.2,39.2,0,0,1,.5,23c-1.71,6.28-4.19,12.35-4.2,19A33.37,33.37,0,0,0,88.5,179.8c1.69,2.78,6.07.24,4.37-2.56a27.89,27.89,0,0,1-4.17-17.86c0.61-5.3,2.7-10.26,4-15.39,2.65-10.22,1.38-20.14-2.65-29.8-2.08-5-4.72-10.15-4.27-15.71,0.4-4.94,3.13-9.27,4.84-13.83A20.51,20.51,0,0,0,92,73.22a70.08,70.08,0,0,0-2.48-7.44c-0.77-2.37-1.91-11.92,3.61-9.36,2.94,1.36,5.51-3,2.56-4.37h0Z"/><path class="cls-3" d="M44.71,43.84c-3.92,11.8,2,23.12,4,34.68,2.33,13.62.68,27.77-.14,41.46l-4.92,82.79c-0.19,3.26,4.87,3.24,5.06,0l4.8-80.8c0.76-12.75,2.15-25.73.91-38.49-1.21-12.4-8.92-26-4.83-38.29,1-3.1-3.86-4.43-4.88-1.35h0Z"/><path class="cls-3" d="M34.77,36.77c-10-5.07-20.55.39-25.56,9.72C3.21,57.65,5.84,68.93,11,79.78c6.19,13,9.76,26.72,8,41.28-0.84,6.77-2.93,13.1-9.17,16.51-4.93,2.69-9.27,5.56-8.94,11.86,0.17,3.24,5.23,3.26,5.06,0-0.33-6.31,7.92-7.32,11.53-11.11,3-3.12,4.64-7.42,5.62-11.54,2.47-10.37,1.67-21.85-.88-32.13-2.66-10.73-10.3-20.27-11.43-31.3s8-29,21.47-22.19c2.9,1.47,5.47-2.89,2.56-4.37h0Z"/><path class="cls-3" d="M65.71,45.16c-3,6.48,2.27,9.61,6.51,13.39,6.74,6,1.68,15.45-1.46,22-3.38,7-5.22,13.52-2.89,21.24,2.43,8.06,7.61,15.28,9.64,23.45,1.94,7.82-2.78,15.27-4.58,22.66-1.28,5.25-1.16,11.39-1.28,16.81,0,1.8-.15,3.94.71,5.58C73.76,172.94,75,173,74,176.51c-0.62,2.07-1.56,3.68-1.68,5.95-0.25,4.72,1.82,8.8-.68,13.27-1.59,2.85,2.78,5.4,4.37,2.56,3.59-6.42.15-12.69,2.36-19.22,0.7-2.08,1.36-3.59,1.15-6-0.25-2.81-1.73-3.13-2.71-5.4-0.84-2,0-5.48.17-7.56,0.22-3.14-.08-6.34.49-9.43,1.27-6.88,5-13.1,5.5-20.15,0.53-7.26-3.37-13.86-6.19-20.29-2.13-4.86-4.92-10-5.05-15.44-0.11-4.78,2.07-9,4.11-13.22C78.59,76,81.25,70.1,80.39,63.7A13.91,13.91,0,0,0,77.73,57c-1.8-2.37-9.24-5.89-7.65-9.31,1.36-2.94-3-5.51-4.37-2.56h0Z"/><path class="cls-3" d="M26,39.51c-8.06,8.12-7.12,19.71-4.18,29.89,4,13.71,6.89,27.1,7.92,41.41,0.49,6.81.28,14-2.79,20.19-2.49,5-7.06,8.39-10.2,13a17.6,17.6,0,0,0-2.83,13.15c1.21,7.74,4.28,14,1.75,21.93-1,3.11,3.9,4.45,4.88,1.35a29.21,29.21,0,0,0,.18-16.67c-1.79-7.06-3.37-12.8,1.7-18.87,3.11-3.72,6.69-6.89,8.89-11.3a37.52,37.52,0,0,0,3.63-15.09c0.58-12.36-1.6-26.19-4.6-38.18-2.89-11.56-11-26.93-.77-37.19,2.3-2.32-1.28-5.9-3.58-3.58h0Z"/><path class="cls-3" d="M33.23,40.54c-1.76,5.76-3.56,11.82-3.05,17.92s4.47,11.06,4.71,17.2c0.26,6.51,0,12.48,1.44,18.91,1.58,7,3.68,13.83,4.06,21.08,0.75,14.07-3,27.88-6.68,41.31-1.62,5.87-3.63,11.77-3.53,17.93,0.11,6.83,2.12,13.41,1.37,20.28-0.35,3.24,4.72,3.21,5.06,0,0.71-6.59-1.08-12.85-1.35-19.4-0.29-6.89,2.28-13.61,4.08-20.17,3.39-12.4,6.5-25.17,6.18-38.12s-6-25.1-5.65-38.16a34,34,0,0,0-.53-8.81c-0.65-2.73-2.15-5.06-3.1-7.68-2.51-6.88-.18-14.27,1.87-20.95,1-3.12-3.93-4.46-4.88-1.35h0Z"/><ellipse class="cls-4" cx="51.88" cy="49.9" rx="4.95" ry="44.71" transform="translate(-7.2 91.03) rotate(-78.73)"/><path class="cls-5" d="M94.07,57c-5.85.91-22.86-1-42.66-4.92S15.18,43.31,10.13,40.23c-1.31.2-2.06,0.54-2.16,1C7.44,43.94,26.64,50,50.85,54.85s44.28,6.56,44.81,3.88C95.76,58.24,95.2,57.64,94.07,57Z"/><ellipse class="cls-6" cx="51.88" cy="49.9" rx="4.95" ry="44.71" transform="translate(-7.2 91.03) rotate(-78.73)"/><path class="cls-7" d="M46.3,44.28c-3.81,11.47,2.07,22.57,4,33.8,2.36,13.78.74,28-.08,41.9l-4.92,82.79c-0.07,1.14,1.7,1.13,1.77,0l4.8-80.8c0.76-12.75,2.15-25.73.91-38.49s-9-26.11-4.77-38.72c0.36-1.08-1.35-1.55-1.71-.47h0Z"/><path class="cls-7" d="M67.05,46c-2.58,5.56,2.76,8.23,6.25,11.39,7.37,6.68,2.29,16.69-1.21,24C68.91,88,67.18,94,69.38,101.3c2.43,8.06,7.6,15.28,9.64,23.45s-2.69,15.8-4.58,23.54c-1.24,5.1-1.11,11.1-1.22,16.37,0,1.43-.23,3.44.48,4.75,1.67,3.07,3,4.09,1.64,7.92a18,18,0,0,0-1.45,5.11c-0.35,4.81,1.58,9.59-.91,14.1a0.88,0.88,0,0,0,1.53.89c3.26-5.93.21-12.95,2.36-19.22a10.6,10.6,0,0,0,.93-5.12c-0.27-2.54-1.83-2.66-2.65-5s-0.05-5.64.11-8c0.23-3.29-.06-6.62.55-9.87,1.26-6.71,4.94-12.84,5.45-19.72s-3.26-13.29-6-19.45C73,106,70.12,100.57,70,94.82c-0.1-5.1,2.16-9.59,4.34-14.05,2.59-5.3,5.26-11,4.32-17.08a12.42,12.42,0,0,0-2.18-5.51c-2.48-3.4-10.34-6.07-7.91-11.31,0.48-1-1-1.92-1.53-.89h0Z"/><path class="cls-7" d="M60.66,46.54c-0.38,3.37.27,6.19,0.86,9.46a46.93,46.93,0,0,1,.59,12.34C61.58,75,60.06,81.49,59.84,88.14s1.49,12.41,3.14,18.69a149.18,149.18,0,0,1,4.32,23.37c0.63,6.5-2.93,11.74-3.64,18a187.47,187.47,0,0,0-.85,21.9c0,7.32.21,14.65-.1,22-0.22,5.38-.65,10.53,2.06,15.38a0.88,0.88,0,0,0,1.53-.89c-3.37-6-1.75-13.62-1.66-20.22,0.1-7-.11-14-0.06-21s-0.27-14.95,1.76-21.73c0.89-3,2.47-5.72,2.85-8.84a29.46,29.46,0,0,0-.48-7.62,190.85,190.85,0,0,0-3.78-19.91c-1.71-6.72-3.63-13-3.27-20C62,80.6,63.48,74.08,63.94,67.45c0.48-7.07-2.29-14-1.51-20.91,0.13-1.13-1.64-1.12-1.77,0h0Z"/><path class="cls-7" d="M33.93,38.19c-9.18-4.67-18.74.63-23.31,9.13-5.7,10.61-3.1,21.34,1.79,31.63,6.33,13.31,10,27.23,8.18,42.11-0.88,7.34-3.21,14.22-10,17.93-4.44,2.43-8.42,4.73-8.13,10.44,0.06,1.13,1.83,1.14,1.77,0-0.39-7.41,8-8,12-12.28,2.76-2.94,4.27-7,5.19-10.82,2.4-10.08,1.6-21.26-.88-31.25C17.87,84.18,10.18,74.56,9.09,63.34,7.88,50.91,18.4,32.27,33,39.72c1,0.51,1.91-1,.89-1.53h0Z"/><path class="cls-7" d="M94.81,53.47a6.48,6.48,0,0,0-8.19,2.14c-2.76,3.7-1.28,8.66.09,12.55s2.7,7.17,1.91,11.38c-0.58,3.09-2,6-3.25,8.84-2.07,4.74-3.63,9.37-2.79,14.6,1,6,4.22,11.31,6.13,17a40.78,40.78,0,0,1,.5,23.91C87.55,150,85.08,156,85.08,162.44A31.71,31.71,0,0,0,89.92,179a0.88,0.88,0,0,0,1.53-.89,29.49,29.49,0,0,1-4.37-18.91c0.62-5.38,2.71-10.4,4.06-15.61,2.56-9.86,1.32-19.4-2.56-28.72-2.21-5.31-4.9-10.65-4.39-16.57,0.44-5,3.12-9.39,4.87-14a19.21,19.21,0,0,0,1.31-10.57c-0.5-2.58-1.68-5-2.48-7.44-1.17-3.59-1.63-14.78,6-11.22,1,0.48,1.92-1,.89-1.53h0Z"/><path class="cls-7" d="M27.16,40.68c-7.62,7.68-6.52,18.7-3.76,28.28,4,13.85,6.94,27.39,8,41.84,0.51,7.11.22,14.53-3,21-2.52,5.06-7.06,8.38-10.2,13a16,16,0,0,0-2.66,11.88c1.16,8.07,4.4,14.48,1.75,22.81A0.88,0.88,0,0,0,19,180a27.52,27.52,0,0,0,.18-15.8c-1.94-7.68-3.37-13.91,2.13-20.47,3-3.62,6.49-6.68,8.63-11a35.5,35.5,0,0,0,3.41-14.26c0.58-12.22-1.58-25.88-4.54-37.74-3.07-12.28-11.12-27.94-.35-38.79a0.88,0.88,0,0,0-1.25-1.25h0Z"/><path class="cls-7" d="M34.82,41c-1.72,5.62-3.52,11.53-3,17.48,0.54,6.12,4.48,11,4.71,17.2,0.24,6.36,0,12.19,1.38,18.47,1.61,7.18,3.73,14.11,4.12,21.52,0.76,14.21-3,28.18-6.74,41.75-1.58,5.73-3.57,11.48-3.47,17.49,0.11,6.83,2.12,13.41,1.37,20.28-0.12,1.13,1.65,1.12,1.77,0,0.71-6.59-1.08-12.85-1.35-19.4-0.29-7,2.3-13.9,4.13-20.61,3.35-12.27,6.44-24.87,6.12-37.68-0.32-13-6-25.09-5.65-38.16a32.81,32.81,0,0,0-.47-8.38c-0.64-2.73-2.17-5.05-3.1-7.68-2.57-7.2-.27-14.83,1.87-21.82A0.88,0.88,0,0,0,34.82,41h0Z"/><path class="cls-8" d="M94.65,58.16c-20-10-41.43-13.71-41.65-13.74a194,194,0,0,0-36.2-3.25c-2.6,0-5.21.05-7.77,0.15l-0.65,0L8.3,40.7c-0.94-7.2,2.1-15.6,8.15-22.49C21.1,12.91,31.55,4,49.3,4A56.52,56.52,0,0,1,61,5.28C76.13,8.49,87.77,16.83,93.77,28.76c4.82,9.59,5.55,21,1.85,29.06l-0.31.67Z"/><path class="cls-3" d="M49.3,4.73A55.59,55.59,0,0,1,60.84,6C94.47,13.12,101.7,42.82,95,57.52,74.68,47.37,53.12,43.71,53.12,43.71A192.76,192.76,0,0,0,16.8,40.45c-2.52,0-5.13,0-7.8.15C7.07,25.82,22.63,4.73,49.3,4.73m0-1.43c-18,0-28.67,9-33.4,14.44-6.18,7-9.29,15.66-8.32,23.06l0.17,1.3L9.07,42c2.54-.1,5.15-0.15,7.74-0.15a193.34,193.34,0,0,1,36,3.23h0.06c0.21,0,21.59,3.75,41.44,13.68l1.33,0.66,0.62-1.35c3.78-8.26,3.05-19.91-1.86-29.68C88.31,16.31,76.49,7.84,61.14,4.58A57.23,57.23,0,0,0,49.3,3.3h0Z"/><ellipse class="cls-9" cx="38.91" cy="12.31" rx="8.67" ry="3.08" transform="matrix(0.97, -0.26, 0.26, 0.97, -1.85, 10.36)"/><g class="cls-10"><path class="cls-8" d="M14.94,21.23h0c-0.27.37-.53,0.74-0.79,1.11L14,22.54q-0.34.5-.65,1l-0.08.12q-0.35.56-.67,1.13L12.54,25q-0.28.5-.54,1l-0.1.19q-0.29.57-.55,1.14l0,0.1q-0.24.52-.45,1l-0.1.23q-0.46,1.13-.81,2.27l-0.08.26c-0.1.34-.2,0.69-0.29,1l0,0.1c-0.1.37-.18,0.75-0.26,1.12l-0.05.25q-0.09.47-.17,0.93l0,0.21Q9,35.37,8.9,35.91c0,0.08,0,.15,0,0.23q0,0.45-.07.89c0,0.09,0,.17,0,0.26,0,0.35,0,.71,0,1.05,0,0.05,0,.1,0,0.16q0,0.45,0,.9c0,0.09,0,.18,0,0.28,0,0.34.06,0.68,0.1,1h0l1.93-.07H11.1l1.82,0h0.28l1.78,0c0.08,0,.16-0.23.24-0.23,0.61,0,1.22-.23,1.82-0.23h0.07c1.28,0,2.54.24,3.78,0.27,0,0,0,.11.06,0.11,0.61,0,1.22.08,1.82,0.1l0.23,0c0.61,0,1,.05,2,0.08H24.65C14.84,40.32,9.13,29.13,14.94,21.23Z"/></g><g class="cls-11"><path class="cls-8" d="M95.35,56.56L95.57,56l0.11-.3,0.2-.59L96,54.82q0.12-.39.23-0.8l0-.08q0.12-.45.23-0.92l0.05-.24q0.08-.35.14-0.7l0.06-.3q0.06-.34.12-0.69l0-.28q0.06-.44.12-0.88V49.83q0.06-.51.1-1V48.65q0-.44.05-0.88c0-.08,0-0.17,0-0.25q0-.41,0-0.83c0-.08-0.11-0.16-0.11-0.24,0-.33-0.12-0.67-0.12-1v0c0-.74.05-1.48,0-2.23,0-.06,0-0.11,0-0.17,0-.32,0-0.65-0.07-1,0-.06,0-0.11,0-0.17-0.14-1.15-.33-2.31-0.58-3.47V38.34c-0.08-.37-0.17-0.74-0.26-1.11l0-.09a39,39,0,0,0-1.53-4.74v0a39.49,39.49,0,0,0-2.24-4.72h0a39.83,39.83,0,0,0-3-4.56h0q-0.42-.55-0.86-1.1c10.12,12.6-2.24,30.85-17.8,26.16l-0.14,0h0l2.72,0.84,0.12,0,1.36,0.44,0.08,0,2.81,0.95,0.17,0.06,1.38,0.49L79.23,51l1.42,0.52h0L82.08,52l0.22,0.09,1.39,0.54,0.21,0.08,1.42,0.57h0l1.43,0.59L87,54l1.39,0.59,0.25,0.11,1.43,0.63h0L91.55,56l0.27,0.12,1.39,0.66,0.25,0.12,1.44,0.71h0c0.12-.26.23-0.53,0.34-0.8Z"/></g><path class="cls-8" d="M54.43,44.06l-0.11,0Z"/><path class="cls-8" d="M54.14,44L54,44Z"/><path class="cls-6" d="M8,41.17c0.53-2.68,20.6-.94,44.81,3.88S96.26,56,95.73,58.64"/><path class="cls-8" d="M167.12,98v28.79a30.17,30.17,0,0,1-1.05,8.5,13.61,13.61,0,0,1-3.38,5.88,14.17,14.17,0,0,1-6.08,3.45,33.08,33.08,0,0,1-9.35,1.13,27.2,27.2,0,0,1-9.15-1.43,15.81,15.81,0,0,1-6.21-3.7,6.75,6.75,0,0,1-2.18-4.67,3.85,3.85,0,0,1,1.23-3,4.22,4.22,0,0,1,3-1.14,4.88,4.88,0,0,1,3.81,1.92q0.8,1,1.65,2a9.64,9.64,0,0,0,1.89,1.71,7.4,7.4,0,0,0,2.49,1.05,14.55,14.55,0,0,0,3.34.34,13.53,13.53,0,0,0,6-1.07,6.12,6.12,0,0,0,3-3,12.05,12.05,0,0,0,1-4.12q0.15-2.2.22-7.06A16.27,16.27,0,0,1,152,128.5a14.43,14.43,0,0,1-7.13,1.67,15,15,0,0,1-8.69-2.54,16.22,16.22,0,0,1-5.72-7.12,26.2,26.2,0,0,1-2-10.56,25,25,0,0,1,1.22-8.06,16.9,16.9,0,0,1,3.47-6.06,14.84,14.84,0,0,1,5.19-3.72,16.31,16.31,0,0,1,6.46-1.25,15.53,15.53,0,0,1,7.3,1.62,17.76,17.76,0,0,1,5.74,5.06V96.19a5.77,5.77,0,0,1,1.27-4,4.19,4.19,0,0,1,3.27-1.42q2.87,0,3.81,1.87A12.27,12.27,0,0,1,167.12,98ZM138.4,110.6q0,6,2.63,9.11a8.53,8.53,0,0,0,6.81,3.09,8.88,8.88,0,0,0,4.67-1.33,9.72,9.72,0,0,0,3.58-4,14,14,0,0,0,1.38-6.48q0-6.06-2.67-9.44a8.52,8.52,0,0,0-7-3.38,8.25,8.25,0,0,0-6.81,3.23Q138.4,104.65,138.4,110.6Z"/><path class="cls-8" d="M186.83,82.07v14.7a21.19,21.19,0,0,1,3.69-3.45,13.28,13.28,0,0,1,4-1.91,16.66,16.66,0,0,1,4.68-.64,13.75,13.75,0,0,1,6.7,1.6,12.41,12.41,0,0,1,6,8.62,31.4,31.4,0,0,1,.36,5.06v19a6.56,6.56,0,0,1-1.36,4.5,4.61,4.61,0,0,1-3.61,1.52q-4.9,0-4.9-6V108.32A15.35,15.35,0,0,0,201,101q-1.42-2.56-5.37-2.56a8.06,8.06,0,0,0-4.77,1.51,9.07,9.07,0,0,0-3.18,4.12q-0.8,2.21-.8,7.88v13.11a6.7,6.7,0,0,1-1.33,4.48,4.6,4.6,0,0,1-3.68,1.54q-4.9,0-4.9-6v-43a6.8,6.8,0,0,1,1.29-4.52A4.5,4.5,0,0,1,181.82,76a4.62,4.62,0,0,1,3.68,1.52A6.69,6.69,0,0,1,186.83,82.07Z"/><path class="cls-8" d="M249.71,113.36H230.32a13.15,13.15,0,0,0,1.36,6,9.11,9.11,0,0,0,8.37,5.19,11.86,11.86,0,0,0,3.25-.42,10.56,10.56,0,0,0,2.85-1.31,21.63,21.63,0,0,0,2.54-1.91q1.16-1,3-2.76a3.25,3.25,0,0,1,2.18-.65,3.59,3.59,0,0,1,2.47.83,3,3,0,0,1,.94,2.36,6.45,6.45,0,0,1-1.05,3.14,12.46,12.46,0,0,1-3.18,3.45,18.08,18.08,0,0,1-5.34,2.74,23,23,0,0,1-7.39,1.09q-9.55,0-14.85-5.45t-5.3-14.78a24.66,24.66,0,0,1,1.31-8.15,18,18,0,0,1,3.81-6.44,16.53,16.53,0,0,1,6.17-4.12,22.15,22.15,0,0,1,8.13-1.43,19.28,19.28,0,0,1,10,2.45,16.12,16.12,0,0,1,6.23,6.33,16.66,16.66,0,0,1,2.07,7.91q0,3.74-2.14,4.85A13.34,13.34,0,0,1,249.71,113.36Zm-19.39-5.63h18q-0.36-5.08-2.74-7.61a8.21,8.21,0,0,0-6.26-2.52,7.93,7.93,0,0,0-6.08,2.56Q230.83,102.73,230.32,107.73Z"/><path class="cls-8" d="M266.77,91.65h1.09v-6q0-2.4.13-3.76a5.53,5.53,0,0,1,.71-2.34,4.46,4.46,0,0,1,1.67-1.65,4.74,4.74,0,0,1,2.43-.64,4.9,4.9,0,0,1,3.41,1.42A4.2,4.2,0,0,1,277.5,81a21,21,0,0,1,.27,3.87v6.75h3.63a4.65,4.65,0,0,1,3.21,1,3.29,3.29,0,0,1,1.11,2.56,2.87,2.87,0,0,1-1.58,2.8,10.25,10.25,0,0,1-4.52.8h-1.85V117a29.45,29.45,0,0,0,.16,3.58,3.64,3.64,0,0,0,.87,2,3,3,0,0,0,2.31.78,12.31,12.31,0,0,0,2.36-.31,12.26,12.26,0,0,1,2.32-.31,3,3,0,0,1,2.16,1,3.23,3.23,0,0,1,1,2.38,4,4,0,0,1-2.61,3.67,17.67,17.67,0,0,1-7.52,1.27q-4.65,0-7-1.56a7.24,7.24,0,0,1-3.14-4.32,29.26,29.26,0,0,1-.74-7.37v-19h-1.31a4.71,4.71,0,0,1-3.27-1,3.32,3.32,0,0,1-1.13-2.58,3.2,3.2,0,0,1,1.18-2.56A5.18,5.18,0,0,1,266.77,91.65Z"/><path class="cls-8" d="M293.09,91.65h1.09v-6q0-2.4.13-3.76A5.53,5.53,0,0,1,295,79.6a4.46,4.46,0,0,1,1.67-1.65,4.74,4.74,0,0,1,2.43-.64,4.9,4.9,0,0,1,3.41,1.42A4.2,4.2,0,0,1,303.82,81a21,21,0,0,1,.27,3.87v6.75h3.63a4.65,4.65,0,0,1,3.21,1A3.29,3.29,0,0,1,312,95.21a2.87,2.87,0,0,1-1.58,2.8,10.25,10.25,0,0,1-4.52.8h-1.85V117a29.45,29.45,0,0,0,.16,3.58,3.64,3.64,0,0,0,.87,2,3,3,0,0,0,2.31.78,12.31,12.31,0,0,0,2.36-.31,12.26,12.26,0,0,1,2.32-.31,3,3,0,0,1,2.16,1,3.23,3.23,0,0,1,1,2.38,4,4,0,0,1-2.61,3.67,17.67,17.67,0,0,1-7.52,1.27q-4.65,0-7-1.56a7.24,7.24,0,0,1-3.14-4.32,29.26,29.26,0,0,1-.74-7.37v-19h-1.31a4.71,4.71,0,0,1-3.27-1,3.32,3.32,0,0,1-1.13-2.58,3.2,3.2,0,0,1,1.18-2.56A5.18,5.18,0,0,1,293.09,91.65Z"/><path class="cls-8" d="M323.88,86.17a5.23,5.23,0,0,1-3.54-1.27,4.93,4.93,0,0,1,0-7.06,5.07,5.07,0,0,1,3.5-1.36,5.19,5.19,0,0,1,3.41,1.23,4.4,4.4,0,0,1,1.49,3.59,4.54,4.54,0,0,1-1.45,3.58A5,5,0,0,1,323.88,86.17Zm4.9,10.24v28.64a6.4,6.4,0,0,1-1.42,4.5,4.69,4.69,0,0,1-3.59,1.52,4.48,4.48,0,0,1-3.54-1.56,6.59,6.59,0,0,1-1.36-4.47V96.7a6.36,6.36,0,0,1,1.36-4.43,4.57,4.57,0,0,1,3.54-1.49,4.75,4.75,0,0,1,3.59,1.49A5.77,5.77,0,0,1,328.78,96.41Z"/><path class="cls-8" d="M338.22,91.65h2.36v-3a19,19,0,0,1,1.18-7.39,7.5,7.5,0,0,1,4-4A19.37,19.37,0,0,1,353.47,76q8.68,0,8.68,4.25a3.35,3.35,0,0,1-.91,2.36,2.83,2.83,0,0,1-2.14,1,15.34,15.34,0,0,1-2-.22,16.14,16.14,0,0,0-2.4-.22q-2.69,0-3.45,1.58a10.67,10.67,0,0,0-.76,4.52v2.36h2.43q5.66,0,5.66,3.41,0,2.43-1.51,3.09a10.7,10.7,0,0,1-4.16.65h-2.43v26.25a6.46,6.46,0,0,1-1.4,4.48,4.65,4.65,0,0,1-3.61,1.54,4.53,4.53,0,0,1-3.5-1.54,6.46,6.46,0,0,1-1.4-4.48V98.8h-2.72a5.19,5.19,0,0,1-3.41-1,3.22,3.22,0,0,1-1.2-2.6Q333.25,91.65,338.22,91.65Z"/><path class="cls-8" d="M369.7,86.17a5.23,5.23,0,0,1-3.54-1.27,4.93,4.93,0,0,1,0-7.06,5.07,5.07,0,0,1,3.5-1.36,5.19,5.19,0,0,1,3.41,1.23,4.4,4.4,0,0,1,1.49,3.59,4.54,4.54,0,0,1-1.45,3.58A5,5,0,0,1,369.7,86.17Zm4.9,10.24v28.64a6.4,6.4,0,0,1-1.42,4.5,4.69,4.69,0,0,1-3.59,1.52,4.48,4.48,0,0,1-3.54-1.56,6.59,6.59,0,0,1-1.36-4.47V96.7A6.36,6.36,0,0,1,366,92.27a4.57,4.57,0,0,1,3.54-1.49,4.75,4.75,0,0,1,3.59,1.49A5.77,5.77,0,0,1,374.6,96.41Z"/><path class="cls-8" d="M416.75,118.12a11.5,11.5,0,0,1-7.9,11.45,26.45,26.45,0,0,1-9.49,1.51,23.15,23.15,0,0,1-9.15-1.63,13.33,13.33,0,0,1-5.63-4.08,8.23,8.23,0,0,1-1.81-4.92,3.81,3.81,0,0,1,1.16-2.8,4,4,0,0,1,2.94-1.16,3.43,3.43,0,0,1,2.4.76,8.37,8.37,0,0,1,1.6,2.14,10.86,10.86,0,0,0,3.65,4,11,11,0,0,0,5.79,1.31,8.36,8.36,0,0,0,4.88-1.33,3.73,3.73,0,0,0,1.91-3,4.12,4.12,0,0,0-2-3.81,24.47,24.47,0,0,0-6.52-2.29,54,54,0,0,1-8.33-2.67,13.71,13.71,0,0,1-5.14-3.69,8.44,8.44,0,0,1-1.92-5.63A9.93,9.93,0,0,1,385,96.59a12.2,12.2,0,0,1,5.25-4.23,20.09,20.09,0,0,1,8.37-1.58,27.53,27.53,0,0,1,6.92.8,17.28,17.28,0,0,1,5.12,2.14,10.59,10.59,0,0,1,3.12,3,5.83,5.83,0,0,1,1.07,3.19,3.69,3.69,0,0,1-1.14,2.8,4.53,4.53,0,0,1-3.25,1.09,4,4,0,0,1-2.6-.87,17.1,17.1,0,0,1-2.45-2.61A9,9,0,0,0,402.73,98a8.35,8.35,0,0,0-4.14-.87,8.1,8.1,0,0,0-4.46,1.14,3.33,3.33,0,0,0-1.78,2.85,3.09,3.09,0,0,0,1.31,2.56,10.83,10.83,0,0,0,3.52,1.65q2.21,0.65,6.1,1.6a32.65,32.65,0,0,1,7.53,2.69,12.54,12.54,0,0,1,4.43,3.69A8.17,8.17,0,0,1,416.75,118.12Z"/><path class="cls-8" d="M434.82,82.07v14.7a21.21,21.21,0,0,1,3.69-3.45,13.28,13.28,0,0,1,4-1.91,16.67,16.67,0,0,1,4.68-.64,13.75,13.75,0,0,1,6.7,1.6,12.4,12.4,0,0,1,6,8.62,31.34,31.34,0,0,1,.36,5.06v19a6.57,6.57,0,0,1-1.36,4.5,4.61,4.61,0,0,1-3.61,1.52q-4.9,0-4.9-6V108.32a15.35,15.35,0,0,0-1.42-7.32q-1.42-2.56-5.37-2.56a8.06,8.06,0,0,0-4.77,1.51,9.07,9.07,0,0,0-3.18,4.12q-0.8,2.21-.8,7.88v13.11a6.7,6.7,0,0,1-1.32,4.48,4.6,4.6,0,0,1-3.69,1.54q-4.9,0-4.9-6v-43a6.8,6.8,0,0,1,1.29-4.52A4.5,4.5,0,0,1,429.81,76a4.63,4.63,0,0,1,3.69,1.52A6.69,6.69,0,0,1,434.82,82.07Z"/><path class="cls-8" d="M493.64,86.17a5.23,5.23,0,0,1-3.54-1.27,4.93,4.93,0,0,1,0-7.06,5.07,5.07,0,0,1,3.5-1.36A5.19,5.19,0,0,1,497,77.71a4.4,4.4,0,0,1,1.49,3.59,4.54,4.54,0,0,1-1.45,3.58A5,5,0,0,1,493.64,86.17Zm4.9,10.24v28.64a6.4,6.4,0,0,1-1.42,4.5,4.69,4.69,0,0,1-3.59,1.52,4.48,4.48,0,0,1-3.54-1.56,6.59,6.59,0,0,1-1.36-4.47V96.7A6.36,6.36,0,0,1,490,92.27a4.57,4.57,0,0,1,3.54-1.49,4.75,4.75,0,0,1,3.59,1.49A5.77,5.77,0,0,1,498.54,96.41Z"/><path class="cls-8" d="M517.78,96.26v1.2a17.36,17.36,0,0,1,5.72-5.06,15.23,15.23,0,0,1,7.13-1.62,14.24,14.24,0,0,1,7,1.71,10.85,10.85,0,0,1,4.61,4.83,11.49,11.49,0,0,1,1.27,3.92,40.66,40.66,0,0,1,.29,5.37v18.44a6.57,6.57,0,0,1-1.36,4.5,4.52,4.52,0,0,1-3.54,1.52,4.57,4.57,0,0,1-3.59-1.56,6.53,6.53,0,0,1-1.38-4.47V108.53a16.51,16.51,0,0,0-1.36-7.5q-1.36-2.6-5.43-2.6a8,8,0,0,0-4.83,1.58,9.07,9.07,0,0,0-3.19,4.34q-0.73,2.21-.73,8.28v12.42a6.44,6.44,0,0,1-1.4,4.52,4.71,4.71,0,0,1-3.61,1.51,4.49,4.49,0,0,1-3.52-1.56,6.53,6.53,0,0,1-1.38-4.47V96.41a6.24,6.24,0,0,1,1.23-4.23,4.28,4.28,0,0,1,3.38-1.4,4.58,4.58,0,0,1,2.36.62,4.43,4.43,0,0,1,1.69,1.85A6.53,6.53,0,0,1,517.78,96.26Z"/><path class="cls-8" d="M589.23,118.81a8.55,8.55,0,0,1-1.11,4,13.59,13.59,0,0,1-3.38,4,17.46,17.46,0,0,1-5.72,3.07,24.26,24.26,0,0,1-7.77,1.16q-9.19,0-14.34-5.35t-5.16-14.36a23.63,23.63,0,0,1,2.36-10.78,16.94,16.94,0,0,1,6.83-7.24,23.21,23.21,0,0,1,17.73-1.43,18.46,18.46,0,0,1,5.45,2.9,13.94,13.94,0,0,1,3.41,3.79,7.52,7.52,0,0,1,1.18,3.76,4,4,0,0,1-1.33,3,4.54,4.54,0,0,1-3.21,1.23,3.24,3.24,0,0,1-2.05-.64,10.09,10.09,0,0,1-1.83-2.05,15,15,0,0,0-3.79-4.14,9.32,9.32,0,0,0-12.11,2.05q-2.69,3.43-2.69,9.38a18.12,18.12,0,0,0,.69,5.14,11.66,11.66,0,0,0,2,4,8.55,8.55,0,0,0,3.16,2.5,9.59,9.59,0,0,0,4.07.85,9.15,9.15,0,0,0,5.1-1.38,12.07,12.07,0,0,0,3.76-4.21,9.68,9.68,0,0,1,2-2.61,3.72,3.72,0,0,1,2.58-.94,3.82,3.82,0,0,1,3,1.38A4.42,4.42,0,0,1,589.23,118.81Z"/><path class="cls-8" d="M600.73,131.08a5.65,5.65,0,0,1-3.88-1.45,5.15,5.15,0,0,1-1.63-4.07,5.26,5.26,0,0,1,1.56-3.81,5.17,5.17,0,0,1,3.85-1.6,5.38,5.38,0,0,1,3.9,1.58,5.61,5.61,0,0,1,0,7.88A5.46,5.46,0,0,1,600.73,131.08Z"/></g></g></svg>